<svg width="116" height="526" viewBox="0 0 116 526" fill="none" xmlns="http://www.w3.org/2000/svg">
<path d="M93 517.886L37.2273 489.727H36.7841V522.659H23.1818V472.273H36.8864L93 500.534V517.886Z" fill="black"/>
<path d="M93 8.11364L37.2273 36.2727H36.7841V3.34091H23.1818V53.7273H36.8864L93 25.4659V8.11364ZM93 63.1278H23.1818V111.81H36.8864V80.0028H51.2045V109.321H64.9432V80.0028H79.2955V111.81H93V63.1278ZM23.1818 138.23L74.3182 153.844V154.423L23.1818 170.037V188.923L93 165.366V142.901L23.1818 119.344V138.23ZM93 196.44H23.1818V245.122H36.8864V213.315H51.2045V242.634H64.9432V213.315H79.2955V245.122H93V196.44ZM23.1818 315.111H93V300.793L52.7045 273.009V272.565H93V255.69H23.1818V270.213L63.4091 297.69V298.27H23.1818V315.111ZM36.8864 323.438H23.1818V382.449H36.8864V361.278H93V344.642H36.8864V323.438ZM23.1818 387.213V406.065L52.3977 420.827V421.44L23.1818 436.202V455.054L69.6818 429.52H93V412.747H69.6818L23.1818 387.213Z" fill="black"/>
</svg>
